Normalized EMG Linear Envelopes
nRows=283
nColumns=4

endheader
time	 med_gas_r	  soleus_r	 tib_ant_r	
6.32056	  0.016837	  0.029383	  0.003955	
6.35383	  0.017342	  0.038453	  0.003989	
6.3871	  0.017838	  0.046400	  0.004025	
6.42036	  0.018303	  0.052199	  0.004064	
6.45363	  0.018664	  0.055698	  0.004101	
6.4869	  0.018845	  0.057532	  0.004131	
6.52016	  0.018822	  0.058577	  0.004154	
6.55343	  0.018639	  0.059333	  0.004169	
6.58669	  0.018370	  0.059780	  0.004180	
6.61996	  0.018072	  0.059746	  0.004189	
6.65323	  0.017763	  0.059369	  0.004194	
6.68649	  0.017445	  0.059127	  0.004189	
6.71976	  0.017139	  0.059427	  0.004168	
6.75302	  0.016900	  0.060219	  0.004129	
6.78629	  0.016793	  0.061066	  0.004081	
6.81956	  0.016849	  0.061598	  0.004040	
6.85282	  0.017038	  0.061869	  0.004024	
6.88609	  0.017287	  0.062217	  0.004040	
6.91935	  0.017518	  0.062789	  0.004077	
6.95262	  0.017697	  0.063220	  0.004113	
6.98589	  0.017824	  0.062849	  0.004128	
7.01915	  0.017917	  0.061295	  0.004116	
7.05242	  0.017981	  0.058857	  0.004089	
7.08569	  0.018005	  0.056357	  0.004067	
7.11895	  0.017975	  0.054571	  0.004067	
7.15222	  0.017873	  0.053783	  0.004093	
7.18548	  0.017686	  0.053826	  0.004126	
7.21875	  0.017414	  0.054475	  0.004140	
7.25202	  0.017084	  0.055739	  0.004119	
7.28528	  0.016746	  0.057730	  0.004067	
7.31855	  0.016458	  0.060304	  0.004008	
7.35181	  0.016269	  0.062904	  0.003977	
7.38508	  0.016194	  0.064834	  0.003994	
7.41835	  0.016215	  0.065744	  0.004056	
7.45161	  0.016284	  0.065844	  0.004140	
7.48488	  0.016342	  0.065650	  0.004213	
7.51815	  0.016350	  0.065514	  0.004252	
7.55141	  0.016302	  0.065409	  0.004247	
7.58468	  0.016216	  0.065137	  0.004204	
7.61794	  0.016129	  0.064695	  0.004139	
7.65121	  0.016082	  0.064356	  0.004067	
7.68448	  0.016116	  0.064382	  0.003999	
7.71774	  0.016256	  0.064716	  0.003938	
7.75101	  0.016509	  0.065006	  0.003882	
7.78427	  0.016849	  0.064937	  0.003822	
7.81754	  0.017229	  0.064494	  0.003744	
7.85081	  0.017587	  0.063879	  0.003620	
7.88407	  0.017865	  0.063225	  0.003417	
7.91734	  0.018022	  0.062482	  0.003108	
7.9506	  0.018049	  0.061586	  0.002708	
7.98387	  0.017971	  0.060693	  0.002300	
8.01714	  0.017847	  0.060142	  0.002045	
8.0504	  0.017755	  0.060164	  0.002172	
8.08367	  0.017766	  0.060603	  0.002962	
8.11694	  0.017958	  0.060948	  0.004750	
8.1502	  0.018440	  0.060683	  0.007926	
8.18347	  0.019389	  0.059635	  0.012883	
8.21673	  0.021014	  0.058056	  0.019888	
8.25	  0.023457	  0.056399	  0.028939	
8.28327	  0.026713	  0.055050	  0.039779	
8.31653	  0.030650	  0.054208	  0.052125	
8.3498	  0.035118	  0.053935	  0.065948	
8.38306	  0.040044	  0.054220	  0.081450	
8.41633	  0.045397	  0.054979	  0.098597	
8.4496	  0.051061	  0.056018	  0.116538	
8.48286	  0.056759	  0.057064	  0.133532	
8.51613	  0.062111	  0.057897	  0.147737	
8.5494	  0.066748	  0.058504	  0.158414	
8.58266	  0.070367	  0.059132	  0.166596	
8.61593	  0.072741	  0.060156	  0.174549	
8.64919	  0.073785	  0.061869	  0.184385	
8.68246	  0.073684	  0.064344	  0.196994	
8.71573	  0.072950	  0.067479	  0.212078	
8.74899	  0.072268	  0.071134	  0.229008	
8.78226	  0.072218	  0.075202	  0.247501	
8.81552	  0.073054	  0.079564	  0.267631	
8.84879	  0.074687	  0.084008	  0.289487	
8.88206	  0.076845	  0.088251	  0.312998	
8.91532	  0.079285	  0.092039	  0.337937	
8.94859	  0.081923	  0.095213	  0.363729	
8.98185	  0.084827	  0.097667	  0.389064	
9.01512	  0.088098	  0.099276	  0.411879	
9.04839	  0.091744	  0.099919	  0.430143	
9.08165	  0.095641	  0.099595	  0.443088	
9.11492	  0.099591	  0.098504	  0.451764	
9.14819	  0.103359	  0.096995	  0.458290	
9.18145	  0.106648	  0.095409	  0.464351	
9.21472	  0.109103	  0.093982	  0.470323	
9.24798	  0.110470	  0.092879	  0.475744	
9.28125	  0.110835	  0.092274	  0.480489	
9.31452	  0.110671	  0.092371	  0.485275	
9.34778	  0.110599	  0.093313	  0.490956	
9.38105	  0.111009	  0.095071	  0.497396	
9.41431	  0.111883	  0.097371	  0.503170	
9.44758	  0.112942	  0.099741	  0.506506	
9.48085	  0.113939	  0.101663	  0.506675	
9.51411	  0.114800	  0.102777	  0.504625	
9.54738	  0.115554	  0.103025	  0.502379	
9.58065	  0.116211	  0.102674	  0.501841	
9.61391	  0.116787	  0.102214	  0.504028	
9.64718	  0.117414	  0.102217	  0.509150	
9.68044	  0.118322	  0.103172	  0.516973	
9.71371	  0.119650	  0.105300	  0.526800	
9.74698	  0.121309	  0.108414	  0.537204	
9.78024	  0.123074	  0.111949	  0.546248	
9.81351	  0.124810	  0.115228	  0.552502	
9.84677	  0.126564	  0.117834	  0.556056	
9.88004	  0.128464	  0.119814	  0.558546	
9.91331	  0.130594	  0.121590	  0.562138	
9.94657	  0.132993	  0.123676	  0.568370	
9.97984	  0.135677	  0.126447	  0.577653	
10.0131	  0.138582	  0.130092	  0.589428	
10.0464	  0.141530	  0.134657	  0.602562	
10.0796	  0.144396	  0.140055	  0.615771	
10.1129	  0.147364	  0.146031	  0.628136	
10.1462	  0.150895	  0.152178	  0.639630	
10.1794	  0.155287	  0.158057	  0.651292	
10.2127	  0.160169	  0.163334	  0.664766	
10.246	  0.164510	  0.167804	  0.681318	
10.2792	  0.167184	  0.171284	  0.700975	
10.3125	  0.167646	  0.173583	  0.722461	
10.3458	  0.166172	  0.174655	  0.744123	
10.379	  0.163601	  0.174835	  0.765132	
10.4123	  0.160914	  0.174832	  0.785893	
10.4456	  0.158971	  0.175367	  0.807253	
10.4788	  0.158438	  0.176730	  0.829211	
10.5121	  0.159772	  0.178677	  0.850299	
10.5454	  0.163186	  0.180732	  0.868174	
10.5786	  0.168557	  0.182560	  0.880992	
10.6119	  0.175296	  0.184081	  0.888676	
10.6452	  0.182350	  0.185331	  0.893220	
10.6784	  0.188477	  0.186328	  0.897708	
10.7117	  0.192728	  0.187103	  0.904501	
10.745	  0.194747	  0.187791	  0.913783	
10.7782	  0.194650	  0.188600	  0.923455	
10.8115	  0.192698	  0.189665	  0.930315	
10.8448	  0.189166	  0.190912	  0.931526	
10.878	  0.184495	  0.192115	  0.925609	
10.9113	  0.179396	  0.193086	  0.912952	
10.9446	  0.174712	  0.193794	  0.895957	
10.9778	  0.171196	  0.194272	  0.878440	
11.0111	  0.169408	  0.194392	  0.864032	
11.0444	  0.169727	  0.193812	  0.854459	
11.0776	  0.172303	  0.192236	  0.849126	
11.1109	  0.176892	  0.189798	  0.846422	
11.1442	  0.182705	  0.187217	  0.845407	
11.1774	  0.188493	  0.185526	  0.846162	
11.2107	  0.192970	  0.185560	  0.848603	
11.244	  0.195393	  0.187556	  0.851259	
11.2772	  0.195871	  0.191063	  0.851611	
11.3105	  0.195164	  0.195173	  0.847882	
11.3437	  0.194143	  0.198897	  0.840619	
11.377	  0.193384	  0.201514	  0.832496	
11.4103	  0.193120	  0.202778	  0.826398	
11.4435	  0.193461	  0.202930	  0.823288	
11.4768	  0.194616	  0.202568	  0.821423	
11.5101	  0.196925	  0.202422	  0.817319	
11.5433	  0.200641	  0.203066	  0.807669	
11.5766	  0.205650	  0.204626	  0.791135	
11.6099	  0.211493	  0.206638	  0.769383	
11.6431	  0.217857	  0.208225	  0.747019	
11.6764	  0.225174	  0.208576	  0.730295	
11.7097	  0.234682	  0.207441	  0.724817	
11.7429	  0.247616	  0.205261	  0.733123	
11.7762	  0.263973	  0.202830	  0.753279	
11.8095	  0.281843	  0.200755	  0.779336	
11.8427	  0.298083	  0.199166	  0.803675	
11.876	  0.310046	  0.197870	  0.820244	
11.9093	  0.317009	  0.196703	  0.826948	
11.9425	  0.320073	  0.195681	  0.825763	
11.9758	  0.320751	  0.194864	  0.820641	
12.0091	  0.319801	  0.194191	  0.814771	
12.0423	  0.317373	  0.193516	  0.809028	
12.0756	  0.313978	  0.192759	  0.802231	
12.1089	  0.310935	  0.191978	  0.792574	
12.1421	  0.309865	  0.191331	  0.779169	
12.1754	  0.311992	  0.191010	  0.762881	
12.2087	  0.318041	  0.191167	  0.745997	
12.2419	  0.328526	  0.191827	  0.730878	
12.2752	  0.343692	  0.192853	  0.718478	
12.3085	  0.362958	  0.194090	  0.707880	
12.3417	  0.384501	  0.195597	  0.697216	
12.375	  0.405715	  0.197716	  0.685187	
12.4083	  0.424377	  0.200810	  0.671989	
12.4415	  0.439524	  0.204819	  0.659097	
12.4748	  0.451297	  0.209014	  0.648328	
12.5081	  0.460128	  0.212155	  0.640919	
12.5413	  0.466281	  0.212980	  0.637017	
12.5746	  0.470012	  0.210745	  0.635510	
12.6079	  0.471607	  0.205577	  0.634060	
12.6411	  0.470805	  0.198455	  0.629452	
12.6744	  0.466291	  0.190755	  0.618476	
12.7077	  0.456224	  0.183570	  0.599162	
12.7409	  0.439577	  0.177232	  0.571752	
12.7742	  0.417070	  0.171308	  0.538761	
12.8075	  0.390910	  0.165054	  0.504103	
12.8407	  0.363627	  0.157952	  0.471768	
12.874	  0.336803	  0.150030	  0.444587	
12.9073	  0.310411	  0.141802	  0.423462	
12.9405	  0.283176	  0.133941	  0.407365	
12.9738	  0.253860	  0.126932	  0.394204	
13.0071	  0.222634	  0.120962	  0.382073	
13.0403	  0.191446	  0.115998	  0.369917	
13.0736	  0.163055	  0.111858	  0.357224	
13.1069	  0.139533	  0.108184	  0.343366	
13.1401	  0.121397	  0.104483	  0.327553	
13.1734	  0.107824	  0.100361	  0.309482	
13.2067	  0.097495	  0.095784	  0.289902	
13.2399	  0.089372	  0.091105	  0.270347	
13.2732	  0.083006	  0.086788	  0.252225	
13.3065	  0.078400	  0.083076	  0.236073	
13.3397	  0.075611	  0.079846	  0.221537	
13.373	  0.074357	  0.076707	  0.207972	
13.4062	  0.073862	  0.073247	  0.195047	
13.4395	  0.073112	  0.069297	  0.182929	
13.4728	  0.071352	  0.065067	  0.172002	
13.506	  0.068458	  0.061072	  0.162450	
13.5393	  0.064854	  0.057877	  0.154035	
13.5726	  0.061093	  0.055833	  0.146188	
13.6058	  0.057485	  0.054941	  0.138307	
13.6391	  0.054071	  0.054902	  0.130085	
13.6724	  0.050836	  0.055274	  0.121656	
13.7056	  0.047877	  0.055665	  0.113437	
13.7389	  0.045364	  0.055843	  0.105750	
13.7722	  0.043387	  0.055754	  0.098494	
13.8054	  0.041839	  0.055454	  0.091151	
13.8387	  0.040436	  0.055024	  0.083154	
13.872	  0.038859	  0.054527	  0.074315	
13.9052	  0.036911	  0.054004	  0.064958	
13.9385	  0.034608	  0.053473	  0.055697	
13.9718	  0.032146	  0.052920	  0.047075	
14.005	  0.029781	  0.052299	  0.039378	
14.0383	  0.027724	  0.051563	  0.032666	
14.0716	  0.026087	  0.050698	  0.026891	
14.1048	  0.024896	  0.049749	  0.021957	
14.1381	  0.024116	  0.048797	  0.017745	
14.1714	  0.023670	  0.047926	  0.014145	
14.2046	  0.023464	  0.047212	  0.011114	
14.2379	  0.023421	  0.046754	  0.008673	
14.2712	  0.023499	  0.046710	  0.006856	
14.3044	  0.023678	  0.047285	  0.005651	
14.3377	  0.023929	  0.048632	  0.004986	
14.371	  0.024201	  0.050729	  0.004772	
14.4042	  0.024427	  0.053289	  0.004959	
14.4375	  0.024537	  0.055807	  0.005549	
14.4708	  0.024476	  0.057713	  0.006557	
14.504	  0.024230	  0.058562	  0.007925	
14.5373	  0.023838	  0.058160	  0.009475	
14.5706	  0.023396	  0.056590	  0.010948	
14.6038	  0.023035	  0.054168	  0.012110	
14.6371	  0.022881	  0.051345	  0.012848	
14.6704	  0.023005	  0.048576	  0.013154	
14.7036	  0.023401	  0.046187	  0.013037	
14.7369	  0.023994	  0.044280	  0.012474	
14.7702	  0.024674	  0.042753	  0.011462	
14.8034	  0.025328	  0.041416	  0.010103	
14.8367	  0.025862	  0.040152	  0.008615	
14.87	  0.026224	  0.039006	  0.007238	
14.9032	  0.026419	  0.038175	  0.006137	
14.9365	  0.026505	  0.037909	  0.005366	
14.9698	  0.026549	  0.038393	  0.004893	
15.003	  0.026561	  0.039643	  0.004645	
15.0363	  0.026475	  0.041444	  0.004538	
15.0696	  0.026193	  0.043359	  0.004497	
15.1028	  0.025669	  0.044848	  0.004469	
15.1361	  0.024950	  0.045488	  0.004436	
15.1694	  0.024170	  0.045177	  0.004402	
15.2026	  0.023494	  0.044170	  0.004382	
15.2359	  0.023057	  0.042918	  0.004383	
15.2692	  0.022928	  0.041853	  0.004397	
15.3024	  0.023080	  0.041251	  0.004414	
15.3357	  0.023389	  0.041205	  0.004429	
15.369	  0.023676	  0.041649	  0.004445	
15.4022	  0.023779	  0.042361	  0.004472	
15.4355	  0.023636	  0.043022	  0.004509	
15.4687	  0.023325	  0.043342	  0.004549	
15.502	  0.023040	  0.043204	  0.004573	
15.5353	  0.023022	  0.042729	  0.004565	
15.5685	  0.023463	  0.042205	  0.004517	
15.6018	  0.024436	  0.041939	  0.004428	
15.6351	  0.025875	  0.042119	  0.004304	
15.6683	  0.027620	  0.042763	  0.004158	
15.7016	  0.029490	  0.043740	  0.004002	
